<?xml version="1.0" standalone="no"?>
<svg width="800" height="800" xmlns="http://www.w3.org/2000/svg" id="stage-svg" xmlns:xlink="http://www.w3.org/1999/xlink" preserveAspectRatio="none" viewBox="0 0 385 385"><g transform="translate(0 0)"><g transform=""><defs><path fill="#E0BF81" d="M191.5 95.8q0-39.7-28.05-67.75-16.2-16.2-36.3-23.05-14.7-5-31.4-5t-31.4 5q-20.1 6.85-36.3 23.05Q0 56.1 0 95.8q0 32.25 18.5 56.85l.05.05q.6.75 1.2 1.55l1 1.2L28 163.5q0 .05.05.05l.7.7q3.5 3.4 7.15 6.4v.05l-.05-.05q-5.81 7.718-10.6 17.75-.078.183-.2.35l-.3.7q-.06.17-.15.35-.117.253-.25.5l-2.6 6.15q-5.345 13.608-8.3 30.1-.05.2-.05.4-.15 2.45.15 4.85Q15.7 245.9 31 249.35q.2.05.45.1l.05-.05q.15.05.25.05.2.6.4 1.15.4.95 1.1 1.75 0 .05.05.1v19.45q-3.9.7-7.8 2.5-.6.267-1.2.55-.94.67 0 .8h143.25q1 0 0-.6-.775-.405-1.55-.75-3.9-1.8-7.8-2.5v-19.45q.05-.05.05-.1.7-.8 1.1-1.75.2-.55.4-1.15.1 0 .25-.05l.05.05q.25-.05.45-.1 15.3-3.45 17.45-17.55.3-2.4.15-4.85 0-.2-.05-.4-3.7-20.65-11.15-36.75-4.8-10.45-11.15-18.95h-.05q0-.1-.1-.2 3.65-3 7.15-6.4l.7-.7q.05 0 .05-.05l7.25-8.05 1-1.2q.6-.8 1.2-1.55l.05-.05q18.5-24.6 18.5-56.85z" id="SkiSki001__Symbol_10_0_Layer0_0_FILL"/><path fill="#CBAA6C" d="M-36.05 227.75h-.2l-3.9.15-1.3.1q-8.5.6-13.15 1.65-4.7 1-5.35 1.3-.15.05-.25.1 8-1.3 16.1-1.8.3-.05.65-.05l2-.1q.2-.05.35-.05h.3q15.4-.65 30.05 2l4.15.7q1.15.2 2.3.45 1.75.35 3.45.75l.3.1q.1 0 .2.05.15 0 .3.05-.4-.15-.8-.25-1.7-.6-3.45-1.05-.55-.15-1.05-.3-.15-.05-.25-.05-10.8-3-22-3.6-.4-.05-.8-.05-.55-.05-1.15-.05l-6.5-.05m3.4-52.2q3.05 1.2 6.25 0 1.6-1.65.35-3.6-.1-.15-.15-.25-3.05-1-6.9 0-.5.7-.6 1.4-.2 1.1.8 2.25.1.1.25.2M3.2 203.7q-1.25-1.15-2.25 0-.05.25 0 .55.25 1.6.15 3.25l.1.05q.7.3 1.05-.35l.1-.2q.15-.45.3-.85.25-.8.4-1.55.05-.15.05-.3l.1-.6m55.4 25.95q-4.65-1.05-13.15-1.65l-1.3-.1-3.9-.15h-.2l-6.5.05q-.6 0-1.15.05-.4 0-.8.05-11.2.6-22 3.6-.1 0-.25.05-.5.15-1.05.3-1.75.45-3.45 1.05-.4.1-.8.25.15-.05.3-.05.1-.05.2-.05l.3-.1q1.7-.4 3.45-.75 1.15-.25 2.3-.45l4.15-.7q14.65-2.65 30.05-2h.3q.15 0 .35.05l2 .1q.35 0 .65.05 8.1.5 16.1 1.8-.1-.05-.25-.1-.65-.3-5.35-1.3M29.55 173.1q-.2 1.1.8 2.25.1.1.25.2 3.05 1.2 6.25 0 1.6-1.65.35-3.6-.1-.15-.15-.25-3.05-1-6.9 0-.5.7-.6 1.4z" id="SkiSki001__hll_0_Layer0_0_FILL"/><path fill="#A18247" d="M-54 165.45q-.05.05-.05.1l-4.3 21.85q-.45 2.1-.85 4.05l-.1.6q-.2.8-.35 1.6-1.5 7.35-2.3 12.15-.75 4.4.45-.6.4-2.5 1.45-6.25.1-.6.25-1.25.7-3.15 1.3-5.65.65-3.05 1.15-5.1h.05l-.05-.05v-.05q.2-.9.35-1.55.2-.95.4-1.55v-.05q0-.15.05-.25.15-.75.2-.85l3.25-16.8.05-.05q0-.25-.1-.4-.1-.2-.3-.2-.2-.05-.3 0-.05 0-.05.05-.05 0-.1.05t-.1.2m81.8 53.1q5.828-.808 11.3-1.95-.15 0-.3.05-.95.05-1.9.15-.75.05-1.5.15-13.1 1.2-26.3 1.45-4.5.1-9 .1-17-.1-34.1-1.8-.65-.1-1.2-.15 5.808 1.176 11.85 2 11.28 1.525 23.45 1.85h.55v.1l1.4 12.2v-.4l.05.4 1.4-12.2v-.1h.05q.15 0 .35.05l5.2-.2q9.762-.455 18.7-1.7m30.1-53.2l-.05-.05q-.15-.05-.35 0-.2 0-.3.2-.1.15-.05.4l3.25 16.85q.1.2 1.05 4.3v.05q.45 2 1.1 4.95.55 2.4 1.2 5.4l.1.4q.25 1.2.5 2.25 1 3.35 1.35 5.75 1.05 4.3.3.1-.9-5.3-2.65-13.9-.4-2.15-.9-4.5L58.1 165.7v-.1q-.1-.2-.2-.25m2.25-34.1q-1.35 1.05-2.8 2.1l-1.55 1.15q-20.35 14.1-45.8 16l-1.1.05q-3.35.2-6.8.2h-.2q-3.45 0-6.8-.2l-1.1-.05q-25.45-1.9-45.8-16l-1.55-1.15q-1.45-1.05-2.8-2.1l-1.15-.9q10.019 8.81 21.45 14.1 17.928 7.84 37.75 7.85h.2q19.823-.01 37.75-7.85 11.45-5.3 21.45-14.05l-1.15.85z" id="SkiSki001__hdd_0_Layer0_0_FILL"/><filter id="SkiSki001__Filter_1" x="-20%" y="-20%" width="140%" height="140%" color-interpolation-filters="sRGB"><feColorMatrix in="SourceGraphic" values="1 0 0 0 0 0 1 0 0 0 0 0 1 0 0 0 0 0 0.75 0" result="result1"/></filter></defs><use xmlns:xlink="http://www.w3.org/1999/xlink" xlink:href="#SkiSki001__Symbol_10_0_Layer0_0_FILL" transform="translate(96.75 58)" id="SkiSki001__col1n"/><use xmlns:xlink="http://www.w3.org/1999/xlink" xlink:href="#SkiSki001__hll_0_Layer0_0_FILL" transform="matrix(1.00052 0 0 1 190.5 98.75)" id="SkiSki001__col1d"/><use filter="url(#SkiSki001__Filter_1)" xmlns:xlink="http://www.w3.org/1999/xlink" xlink:href="#SkiSki001__hdd_0_Layer0_0_FILL" transform="matrix(1.00052 0 0 1 190.5 98.75)" id="SkiSki001__col1s"/></g></g><g transform=""><g transform=""><defs><path fill="#000000" d="M125.7.05l.05-.05Q61.85 12.5 0 0q0 .05.05.1v12.45H125.7V.05z" id="LegPan002__Symbol_2_0_Layer0_0_FILL"/></defs><use xmlns:xlink="http://www.w3.org/1999/xlink" xlink:href="#LegPan002__Symbol_2_0_Layer0_0_FILL" transform="translate(129.65 310.25)" id="LegPan002__col1n"/></g></g><g transform=""><g transform=""><defs><path fill="#000000" d="M146.9 7.7q-9-5.25-23.3-6.95-13.1-1.45-27.4 0-7 .8-14.2 2.45l-8.3 2.05-8.3-2.05Q58.2 1.55 51.2.75 36.9-.7 23.8.75 9.1 2.5 0 8h147.4l-.5-.3z" id="LegSho001__Symbol_2_0_Layer0_0_FILL"/></defs><use xmlns:xlink="http://www.w3.org/1999/xlink" xlink:href="#LegSho001__Symbol_2_0_Layer0_0_FILL" transform="translate(118.8 326)" id="LegSho001__col1n"/></g></g><g transform=""><g transform=""><defs><path fill="#FFFFFF" d="M126.65 47.15q-.65-3.1-1.3-6.15l-2.85-14.75h.05L117.75 0Q65.25 26.3 15.9 0l-5.55 25.95-.1.25v.05h.1l-.05.25v.05l-.1.5v.1q-.1 0-.15.05L7.5 40.25q-.55 2.7-1.1 5.45L2.95 60Q2 63.7 1.1 67.4l-.25 1v.05l-.8 2.95v.25L0 71.7h.2q.25.1.5.15H.85q2.05.5 4.15.95 61.75 14 122.7 0 2.1-.45 4.15-.95H132q.25-.05.5-.15h.2l-.05-.2v-.1l-6-24.25z" id="ShiSho021__Symbol_29_0_Layer0_0_FILL"/><path fill="#E0E0E0" d="M42.45 8.4q4.1.4 7.9.6.5 0 1.05.05-8.05-.95-16.75-2.35-2.95-.45-6-1Q16.8 3.65 3.8.8 2.75.55 1.7.35 1.25.2.75.1L.35 0 .1 1v.05l-.1.3.45.1q.45.1.85.2.85.15 1.7.35 4.75 1 9.3 1.9 16.85 3.2 30.15 4.5M129.6.25q-1.25.3-2.5.55-16.5 3.65-31.5 5.9-1.75.25-3.4.5-6.25.9-12.25 1.55-.5.05-.95.1h.95q13.95-.65 32.1-3.75 7.3-1.3 15.3-2.95l2.9-.6q.3-.1.6-.15.15-.05.35-.1l-.3-1.3q-.2 0-.4.05l-.9.2z" id="ShiSho021__Symbol_55_0_Layer0_0_FILL"/><path fill="#000000" d="M146.5 19.1q-1.8-3.95-3.85-7.6-.95-1.75-1.95-3.4-.1-.1-.15-.2-.6-.95-1.15-1.9-.95-1.45-1.95-2.85-1.1-1.6-2.25-3.15l-1.85 1.4-.6.5q-1.05.8-2.2 1.6L129 4.65q-6.55 4.5-13.55 7.8-15 6.9-32.3 8.2l-1.1.05q-3.1.2-6.3.2h-1.2q-3.2 0-6.3-.2l-1.1-.05q-17.2-1.3-32.05-8.1-7.15-3.3-13.8-7.9L19.75 3.5q-.25-.2-.5-.35-1.2-.9-2.3-1.75L15.1 0q-.1.05-.15.15-1.1 1.45-2.1 3-1.9 2.7-3.6 5.55-.3.5-.6 1.05-.55.9-1.05 1.85-2 3.65-3.8 7.5-1.2 2.55-2.25 5.25l-.1.25q-.1.15-.15.35-.1.15-.15.3-.4 1.05-.8 2.15-.2.45-.35.95l19 7.05 2.2-6.1q.1-.3.2-.55 3.2-9.85 7.6-12.9.1-.15.25-.2.55-.35 1.1-.6l.7-.35q13.3 6.55 28.45 8.7 7.6 1.1 15.65 1.1 23.55 0 43.3-9.4.4-.2.8-.35l.2.1v.05q.3.15.6.35 6.6 3.85 9.7 14.8l1.55 5.4 19.05-7.1q-.2-.5-.35-.95l-.8-2.1q-.05 0-.05-.05l-.15-.45q-1.2-2.9-2.5-5.7z" id="ShiSho021__Symbol_77_0_Layer0_0_FILL"/><path fill="#121212" d="M.15.65Q.05.8 0 1h.1l18.15 6.7Q10.7 3.55 2.05.5 1.75.4 1.5.35 1 .15.55 0H.4Q.3.2.25.4l-.1.25m145.5.25q-8.05 2.9-15.1 6.8l17.35-6.35q-.05 0-.05-.05l-.15-.45q-.15-.3-.25-.55-.3.05-.55.15-.55.2-1.05.4-.1 0-.2.05z" id="ShiSho021__Symbol_97_0_Layer0_0_FILL"/></defs><use xmlns:xlink="http://www.w3.org/1999/xlink" xlink:href="#ShiSho021__Symbol_29_0_Layer0_0_FILL" transform="translate(126.1 237.8)" id="ShiSho021__col1n"/><use xmlns:xlink="http://www.w3.org/1999/xlink" xlink:href="#ShiSho021__Symbol_55_0_Layer0_0_FILL" transform="translate(126.85 305.2)" id="ShiSho021__col1d"/><use xmlns:xlink="http://www.w3.org/1999/xlink" xlink:href="#ShiSho021__Symbol_77_0_Layer0_0_FILL" transform="translate(117.35 228.6)" id="ShiSho021__col2n"/><use xmlns:xlink="http://www.w3.org/1999/xlink" xlink:href="#ShiSho021__Symbol_97_0_Layer0_0_FILL" transform="translate(118.65 252.55)" id="ShiSho021__col2d"/></g></g><g transform=""><g transform=""><defs><path fill="#E0BF81" d="M34.65 11q0-3.2-2.25-5.45-1.65-1.65-3.8-2.1-.3-.05-.55-.1-.25-.05-.5-.05-.15-.05-.35 0-.15-.05-.35 0h-.4q-.7.05-1.25.15-.15.05-.35.1Q20.7-.05 15.1 0 9.35-.05 5.2 3.65q-.05.05-.1.15-.2.1-.35.25-.05 0-.05.05l-.05.05-.2.2q-.25.25-.45.5-.05 0-.05.05l-.05.05-.3.3Q0 9.4 0 15q0 6.2 4.45 10.6Q8.85 30 15.1 30q2.9 0 5.4-.95.1-.05.2-.05.05-.05.15-.1h.05q.05-.05.15-.1.4-.15.75-.35l.8-.4q.1-.05.15-.1l.1-.05q1.5-.95 2.9-2.3 3.25-3.25 4.1-7.45.05-.05.1-.05l.3-.1q1.15-.55 2.15-1.55 2.25-2.25 2.25-5.45m135.6-6.85V4.1l-.05-.05q-.2-.15-.35-.25-.05-.1-.1-.15-4.2-3.7-9.9-3.65-5.65-.05-9.7 3.55-.2-.05-.35-.1-.4-.1-.8-.1l-.8-.05q-.2-.05-.35 0-.25-.05-.4 0-.25 0-.45.05h-.05q-.25.05-.45.1-2.2.45-3.85 2.1-2.3 2.25-2.3 5.45t2.3 5.45q.95 1 2.15 1.55l.3.1q.85 4.25 4.1 7.5 1.35 1.35 2.9 2.3.05 0 .1.05t.15.1q.35.2.75.4.35.2.75.35l.2.1h.05q.05.05.15.1.1 0 .2.05 2.5.95 5.4.95 6.25 0 10.65-4.4t4.45-10.6q-.05-5.6-3.65-9.75-.15-.15-.25-.3l-.1-.1q-.25-.25-.45-.5-.15-.1-.25-.2z" id="BodHan001__Symbol_2_0_Layer0_0_FILL"/><path fill="#CBAA6C" d="M15.5 7.75q0-3.2-2.25-5.45Q11.6.65 9.45.2 9.15.15 8.9.1 8.65.05 8.4.05q-.15-.05-.35 0Q7.9 0 7.7.05h-.4Q6.6.1 6.05.2 5.9.25 5.7.3q-1.95.45-3.45 2Q0 4.55 0 7.75t2.25 5.45q1.7 1.7 3.95 2.1l1.5.15h.1l.75-.05q1.15-.1 2.15-.5.05-.05.1-.05l.3-.1q1.15-.55 2.15-1.55 2.25-2.25 2.25-5.45M12.45 3q1.95 1.95 1.95 4.75 0 2.75-1.95 4.7-.85.9-1.85 1.4-1 .45-2.05.55l-.75.05h-.1l-1.3-.15q-1.9-.4-3.35-1.85-2-1.95-1.95-4.7Q1.05 4.95 3.05 3q1.45-1.45 3.3-1.8.5-.1 1-.15H7.8q.4 0 .85.1 2.15.25 3.8 1.85m124.3 4.75q-.05-3.2-2.3-5.45-1.5-1.55-3.4-2H131q-.2-.05-.35-.1-.4-.1-.8-.1l-.8-.05q-.2-.05-.35 0-.25-.05-.4 0-.25 0-.45.05h-.05q-.25.05-.45.1-2.2.45-3.85 2.1-2.3 2.25-2.3 5.45t2.3 5.45q.95 1 2.15 1.55l.3.1q1 .4 2.25.55l.75.05h.1l1.5-.15q2.2-.4 3.9-2.1 2.25-2.25 2.3-5.45M133.7 3q1.95 1.95 1.95 4.75 0 2.75-1.95 4.7-1.45 1.45-3.35 1.85l-1.3.15h-.1l-.75-.05q-1.1-.1-2-.55-1.05-.5-1.95-1.4-1.95-1.95-1.9-4.7-.05-2.8 1.9-4.75 1.65-1.6 3.8-1.85h.05q.4-.1.85-.1H129.4q.5.05 1 .15 1.85.35 3.3 1.8z" id="BodHan001__Symbol_1_0_Layer0_0_FILL"/></defs><use xmlns:xlink="http://www.w3.org/1999/xlink" xlink:href="#BodHan001__Symbol_2_0_Layer0_0_FILL" transform="translate(105.05 280.6)" id="BodHan001__col1n"/><use xmlns:xlink="http://www.w3.org/1999/xlink" xlink:href="#BodHan001__Symbol_1_0_Layer0_0_FILL" transform="translate(124.2 283.85)" id="BodHan001__col1d"/></g></g><g transform=""><g transform=""><defs><path fill="#FFFFFF" d="M17.25 7.75q7.2.15 14.25-2.9.75-.25 1.55-.6 1.3-1.35 1.5-4.25H0q.2 2.9 1.5 4.25.8.35 1.55.6 7.05 3.05 14.2 2.9z" id="FacMou021__Symbol_46_0_Layer0_0_FILL"/><path d="M214.2 221.55v-.05h-43.4v.05q1.3 2.3 3.45 4.1l.3.3q4.2 3.15 11.5 4.4 3.2.65 6.45.6 3.25.05 6.45-.6 7.3-1.25 11.5-4.4l.3-.3q2.15-1.8 3.45-4.1m-5.5.95q-.2 2.35-1.4 3.45-.75.3-1.45.5-6.6 2.45-13.35 2.35-6.75.1-13.35-2.35-.7-.2-1.45-.5-1.2-1.1-1.4-3.45h32.4z" id="FacMou021__Layer5_0_FILL"/></defs><use xmlns:xlink="http://www.w3.org/1999/xlink" xlink:href="#FacMou021__Symbol_46_0_Layer0_0_FILL" transform="translate(175.25 222)" id="FacMou021__col1n"/><use xmlns:xlink="http://www.w3.org/1999/xlink" xlink:href="#FacMou021__Layer5_0_FILL"/></g></g><g transform=""><g transform=""><defs><path fill="#FFFFFF" d="M105.35 24.4q-1.2-4.7-3.8-8.85-1.7-2.75-4.05-5.3-.15-.2-.3-.35Q88.85.9 77.85.1 66.8-.75 59.55 7q-5.35 5.75-6.3 13.7-1-7.95-6.35-13.7Q39.65-.75 28.65.1 17.6.9 9.25 9.9q-.3.3-.55.65l-.3.3q-5 5.65-7 12.4Q.35 26.8.1 30.65q-.2 2.7.05 5.15.25 3.15 1.25 6 1.65 4.65 5.15 8.4 7.25 7.75 18.25 6.9 11.05-.8 19.4-9.75 7.8-8.4 9.05-19.25 1.2 10.85 9 19.25 8.35 8.95 19.4 9.75 11 .85 18.25-6.9 3.75-4 5.35-9.15.75-2.4 1-5.05.3-2.6.1-5.4-.2-3.2-1-6.2z" id="FacEye001__Symbol_1_0_Layer0_0_FILL"/><path fill="#000000" d="M3.4 6.65Q4.8 6.6 5.8 5.6q1-.95 1-2.35 0-1.35-1-2.35-1-.95-2.4-.9Q1.95-.05 1 .9q-1 1-1 2.35 0 1.4 1 2.35.95 1 2.4 1.05m32.05 0q1.4-.05 2.35-1.05 1-.95 1-2.35 0-1.35-1-2.35-.95-.95-2.35-.9Q34-.05 33 .9q-1 1-1 2.35 0 1.4 1 2.35 1 1 2.45 1.05z" id="FacEye001__Symbol_4_0_Layer0_0_FILL"/></defs><g id="FacEye001__col1n" transform="translate(139.3 136.2)"><use xmlns:xlink="http://www.w3.org/1999/xlink" xlink:href="#FacEye001__Symbol_1_0_Layer0_0_FILL" id="FacEye001__col1n_FL"/></g><g id="FacEye001__col2n" transform="translate(173 163.45)"><use xmlns:xlink="http://www.w3.org/1999/xlink" xlink:href="#FacEye001__Symbol_4_0_Layer0_0_FILL" id="FacEye001__col2n_FL"/></g></g></g><g transform=""><g transform=""><defs><path fill="#434343" d="M182.65 37.45q-6.75-4.9-14.55-8.7-2.5-1.25-5.15-2.35-3.3-6.7-9.4-11.5-6.55-5.4-15.2-1.1-4-1.9-8.1-3.35-.6-.25-1.2-.45-.05-.05-.15-.05l-2-.7q-.1-.1-.2-.15l-.45-.45q-.95-.9-2-2.1-7.45-8.15-18.9-3.05-1.4.9-2.7 1.4Q99 6.1 95.5 4.25l-.9-.5q-.2-.15-.35-.25-.45-.3-.85-.65l-.3-.2Q89.9.75 87.3.45q-5.6-1.8-20.1 3.45l.6-.1q-5.65 2-17.35 11.35-1.85 1.5-3.85 3.15h-.35q-1.25.05-2.5.2-14.45 1.15-22.05 7.6-1.75 1.45-3.1 3.2-3.15 4.1-6.9 6.75-3.55 2.5-5.95 8.2-3.5 8.2-4.7 22.95-.35 4.1-.5 8.75Q-.7 98.1 1 124.6q6.25 6 10.55 13 2.65-19.8 4.7-38.8 1-9.5 3.05-18.6 1.45-6.6 3.5-13 1.1-3.4 2.35-6.75 1.4-3.85 4.35-6.55.2-.2.45-.4v-.05q1.1-1 2.4-1.8 3.65-2.3 6.7-5.8v-.15q0-.2-.05-.35 2.55 1.05 4.75 1.7 6.3 1.7 9.65-.4Q54.45 46 55.2 45q.5-.7.9-1.6.05 0 .1.05 3.05 1.95 6 3.5 1.75.9 3.45 1.7.8.35 1.65.7l.05.05q3.3 1.5 7.15 2.4 4.1.95 8.85 1.2 3.55.4 6.95.1.4-.05.8-.05 3.25-.3 6.7-.65 3.85 1.35 7.35 2.25 1.95.5 3.8.85 4.95 1 9.1 1 2.25 0 4.25-.3 1.55-.2 2.95-.55.75-.2 1.45-.45.45-.2.85-.35 10.75-4.35 12.5-4.6.45 0 .95-.15.2-.05.45-.1 1.05-.15 2.15-.25 3-.25 5.65-.15 5.8.2 10.05 2.15 9.25 4.2 10.95 16.55 0 .1.7 1.65 1.5 5.05 2.7 10.25l.8 3.9q.2.9.35 1.8 1.2 6.35 1.9 12.9.25 2.65.55 5.35 1.5 13.5 3.35 27.4.35 3 .8 6.05 1.9-3.15 4.2-6.05 2.6-3.35 5.75-6.35 0-.05.1 0 .1 0 .7-7.7.5-7.8.65-31.05.15-23.3-3.4-39.85-1.3-3.65-3.65-6.3-1.35-1.6-3.1-2.85M53.3 15.85l.05.05h-.05v-.05m2.8 27.2h.05q-.048.144-.05.25v-.25z" id="HaiSho050__Symbol_171_0_Layer0_0_FILL"/><path fill="none" d="M1.85 49.1l-.1.1q1.1-1 2.4-1.8 3.65-2.3 6.7-5.8v-.15q0-.2-.05-.35Q9.45 31.15 0 26.2q9.35 14.25 2.35 22.4l-.5.5M29.9 23.45q-1.45-1.3-3.1-2.4.05.1.1.25l.05.2q4 11.9 1.05 17.7 3.05 1.95 6 3.5 1.75-10.7-4.1-19.25m1.25-6.5Q28.8 13 22.25 10.9q-1.85 1.5-3.85 3.15 6.4 0 12.75 2.9m15.15 30.6q4.1.95 8.85 1.2 3.55.4 6.95.1.4-.05.8-.05 3.25-.3 6.7-.65.05-.05.1-.05.05-.5.2-1.3 1.4-8.55-2.95-15.7-.65-1.1-1.45-2.15-4.75-6.55-10.05-11.85 6.2 7.55 7.75 17.1.55 3.7.45 7.7-1.8 8.85-17.35 5.65M67.3 0q8.55 5.1 9.45 6.75l-2.3-6.1Q70.8 1.85 67.3 0m21.5 17.3q2.3 3.1 3.75 6.5 1.9 6.95 2.25 12.45.85 7.75-1.7 11.6-3.35 4.95-12.35 3.4 4.95 1 9.1 1 2.25 0 4.25-.3 1.55-.2 2.95-.55.45-.3.9-.65.3-.65.55-1.25 3.6-8.85.5-18.55-.25-.6-.5-1.15-.8-1.85-1.65-3.65-2.85-5.65-7.2-9.75-1.65-1.5-3.5-2.8 1.35 1.9 2.65 3.7m14.35-6.95l-1.1-4.15q-.6-.25-1.2-.45-.05-.05-.15-.05l-2-.7q-.1-.1-.2-.15l-.45-.45 5.1 5.95m12.7 11.8q-1.65-1.75-2.7-2.6-1.1-.85-4.8-3.55-2.05-1.45-4.1-3.05.2.15 4 3.65t6.5 9.3q3.25 12.45.75 16.45-1.9 3-2.9 3.55.1-.05.2-.05.2-.05.45-.1 1.05-.15 2.15-.25 3-.25 5.65-.15 3.8-13.05-5.2-23.2m20.9 13.4q4.1-3.95 3.15-11.05-2.5-1.25-5.15-2.35 3.65 6.7 2 13.4z" id="HaiSho050__Symbol_90_0_Layer0_0_FILL"/></defs><use xmlns:xlink="http://www.w3.org/1999/xlink" xlink:href="#HaiSho050__Symbol_171_0_Layer0_0_FILL" transform="translate(96.25 41.8)" id="HaiSho050__col1n"/><use xmlns:xlink="http://www.w3.org/1999/xlink" xlink:href="#HaiSho050__Symbol_90_0_Layer0_0_FILL" transform="translate(124.45 46.05)" id="HaiSho050__col1d"/></g></g><g transform=""><g transform=""><defs><path fill="#000000" d="M18.65 3.7Q28.6 3.05 29 3.05q6.95.2 10.45.55 3.45.3 3.35-2.1Q40.3-.05 35.35.05q-3-.1-6.95 0-20.05.2-28.4 12Q8.8 4.3 18.65 3.7m92.25 8.35Q102.65.25 82.85.05q-4.05-.1-6.85 0-5.2-.1-7.5 1.6-.45 1.75 3.65 1.85 3.75-.25 10.05-.45.45 0 10.2.65 9.8.6 18.5 8.35z" id="FacBro011__Symbol_11_0_Layer0_0_FILL"/></defs><use xmlns:xlink="http://www.w3.org/1999/xlink" xlink:href="#FacBro011__Symbol_11_0_Layer0_0_FILL" transform="translate(137.05 120.25)" id="FacBro011__col1n"/></g></g><g transform="translate(0 70)"><g transform=""><text fill="#0087FF" x="50%" y="50%" text-anchor="middle" style="font-family: &quot;Open Sans&quot;; font-size: 16px; font-weight: bold;"><tspan x="50%" dy="1em">&lt;/BR&gt;</tspan></text></g></g></svg>